<svg xmlns="http://www.w3.org/2000/svg" viewBox="0 0 1600 1000" role="img" aria-labelledby="title desc">
  <title id="title">Second Floor Plan placeholder</title>
  <desc id="desc">Architectural floor plan placeholder for the second floor bedrooms.</desc>
  <rect width="1600" height="1000" fill="#f7f1e8"/>
  <rect x="80" y="80" width="1440" height="840" fill="#fffdfa" stroke="#b08e59" stroke-width="4"/>
  <path d="M190 200h390v300H190zM190 500h390v280H190zM580 200h440v580H580zM1020 200h390v300h-390zM1020 500h390v280h-390z" fill="none" stroke="#0d1828" stroke-width="8"/>
  <path d="M580 350h-70M580 635h-70M1020 350h70M1020 635h70" stroke="#f7f1e8" stroke-width="18"/>
  <path d="M320 200c0 90-52 150-130 150M725 200c0 95 52 150 130 150M1165 500c0 85-50 140-130 140" fill="none" stroke="#b08e59" stroke-width="5"/>
  <g fill="#0d1828" font-family="Arial, sans-serif" font-size="36" font-weight="700" letter-spacing="2">
    <text x="275" y="365">BED 1</text>
    <text x="275" y="635">BED 2</text>
    <text x="735" y="500">HALL</text>
    <text x="1110" y="365">BED 3</text>
    <text x="1110" y="635">BED 4</text>
  </g>
  <g fill="#b08e59" font-family="Arial, sans-serif" font-size="24" font-weight="700" letter-spacing="5">
    <text x="80" y="45">PRIVATE ESTATE ACCESS</text>
    <text x="80" y="960">SECOND FLOOR PLAN</text>
  </g>
</svg>
