<svg xmlns="http://www.w3.org/2000/svg" viewBox="0 0 1200 820" role="img" aria-labelledby="title desc">
  <title id="title">Ground Floor Main Residence Plan 3</title>
  <desc id="desc">Architectural placeholder floor plan for the ground floor main residence.</desc>
  <rect width="1200" height="820" fill="#f7f1e8"/>
  <rect x="88" y="84" width="1024" height="652" fill="#fffdf9" stroke="#b08e59" stroke-width="4"/>
  <path d="M205 190h790v440H205z" fill="none" stroke="#0d1828" stroke-width="10"/>
  <path d="M205 352h790M436 190v440M676 190v440" fill="none" stroke="#0d1828" stroke-width="8"/>
  <path d="M205 270h116M436 486h118M676 352h116M876 352h119" fill="none" stroke="#b08e59" stroke-width="10"/>
  <path d="M321 270a116 116 0 0 1-116 116M554 486a118 118 0 0 1-118 118M792 352a116 116 0 0 1-116 116" fill="none" stroke="#b08e59" stroke-width="5"/>
  <text x="320" y="283" text-anchor="middle" font-family="Arial, sans-serif" font-size="31" font-weight="700" fill="#0d1828">ENTRANCE</text>
  <text x="556" y="283" text-anchor="middle" font-family="Arial, sans-serif" font-size="31" font-weight="700" fill="#0d1828">HALL</text>
  <text x="835" y="283" text-anchor="middle" font-family="Arial, sans-serif" font-size="31" font-weight="700" fill="#0d1828">STUDY</text>
  <text x="320" y="512" text-anchor="middle" font-family="Arial, sans-serif" font-size="31" font-weight="700" fill="#0d1828">SERVICE</text>
  <text x="556" y="512" text-anchor="middle" font-family="Arial, sans-serif" font-size="31" font-weight="700" fill="#0d1828">LIFT</text>
  <text x="835" y="512" text-anchor="middle" font-family="Arial, sans-serif" font-size="31" font-weight="700" fill="#0d1828">STORAGE</text>
  <text x="126" y="128" font-family="Arial, sans-serif" font-size="22" font-weight="700" letter-spacing="8" fill="#b08e59">PRIVATE ESTATE ACCESS</text>
  <text x="126" y="712" font-family="Arial, sans-serif" font-size="22" font-weight="700" letter-spacing="8" fill="#b08e59">GROUND FLOOR PLAN 3</text>
</svg>
